<?xml version="1.0" encoding="utf-8"?>
<!-- Generator: Adobe Illustrator 24.1.3, SVG Export Plug-In . SVG Version: 6.00 Build 0)  -->
<svg version="1.1" id="Layer_1" xmlns="http://www.w3.org/2000/svg" xmlns:xlink="http://www.w3.org/1999/xlink" x="0px" y="0px"
	 viewBox="0 0 100 100" style="enable-background:new 0 0 100 100;" xml:space="preserve">
<style type="text/css">
	.st0{fill:url(#SVGID_1_);}
</style>
<linearGradient id="SVGID_1_" gradientUnits="userSpaceOnUse" x1="-455.89" y1="431.6713" x2="-455.89" y2="430.6713" gradientTransform="matrix(100 0 0 -100.0386 45639 43183.7695)">
	<stop  offset="0" style="stop-color:#1A90D8"/>
	<stop  offset="1" style="stop-color:#086CB6"/>
</linearGradient>
<path class="st0" d="M100,50c0-27.6-22.3-50-50-50S0,22.3,0,49.9c0,14,5.9,27.4,16.2,36.9l0,0l1.6,1.4c0.1,0.1,0.2,0.2,0.3,0.2
	c0.9,0.7,1.8,1.4,2.7,2c0.3,0.2,0.6,0.4,0.9,0.6c1,0.7,2,1.3,3,1.9c0.2,0.1,0.4,0.3,0.7,0.4c1.1,0.6,2.3,1.2,3.4,1.8
	c0.1,0,0.2,0.1,0.3,0.1c3.9,1.8,7.9,3.1,12.1,3.8l0.3,0.1c1.3,0.2,2.6,0.4,4,0.5c0.2,0,0.3,0,0.5,0c1.3,0.1,2.7,0.2,4.1,0.2
	s2.7-0.1,4-0.2c0.2,0,0.3,0,0.5,0c1.3-0.1,2.7-0.3,4-0.5c0.1,0,0.2,0,0.3-0.1c4.1-0.7,8.1-2,11.9-3.7c0.1-0.1,0.3-0.1,0.4-0.2
	c1.1-0.5,2.2-1.1,3.3-1.7c0.3-0.2,0.5-0.3,0.8-0.5c1-0.6,1.9-1.2,2.9-1.8c0.3-0.2,0.7-0.5,1-0.7c0.8-0.6,1.6-1.2,2.3-1.8
	c0.2-0.1,0.4-0.3,0.5-0.4l1.7-1.4l0,0C94.1,77.5,100,64.1,100,50z M3.6,50C3.6,24.4,24.4,3.6,50,3.6c25.6,0,46.4,20.7,46.4,46.3
	c0,13.3-5.7,25.9-15.6,34.7c-0.5-0.4-1.1-0.7-1.6-1L63.7,76c-1.4-0.7-2.2-2.1-2.2-3.6V67c0.4-0.4,0.7-0.9,1.1-1.5
	c2-2.9,3.6-6,4.8-9.3c2.3-1.1,3.8-3.4,3.8-6v-6.4c0-1.6-0.6-3.1-1.6-4.3V31c0.3-3.9-0.9-7.7-3.4-10.7c-3.4-3.8-8.8-5.8-16.1-5.8
	s-12.8,1.9-16.1,5.8c-2.5,3-3.7,6.8-3.4,10.7v8.5c-1,1.2-1.6,2.7-1.6,4.3v6.4c0,2,0.9,3.9,2.4,5.1c1.1,4.2,3,8.1,5.6,11.6v5.3
	c0,1.5-0.8,2.8-2.1,3.6l-14.4,7.8c-0.5,0.3-0.9,0.5-1.4,0.9C9.2,75.7,3.6,63.2,3.6,50z"/>
</svg>
