<?xml version="1.0" standalone="no"?>
<!DOCTYPE svg PUBLIC "-//W3C//DTD SVG 20010904//EN"
 "http://www.w3.org/TR/2001/REC-SVG-20010904/DTD/svg10.dtd">
<svg version="1.0" xmlns="http://www.w3.org/2000/svg"
 width="187.000000pt" height="180.000000pt" viewBox="0 0 187.000000 180.000000"
 preserveAspectRatio="xMidYMid meet">
<metadata>
Created by potrace 1.16, written by Peter Selinger 2001-2019
</metadata>
<g transform="translate(0.000000,180.000000) scale(0.100000,-0.100000)"
fill="#000000" stroke="none">
<path d="M646 1662 c-8 -58 7 -141 35 -199 25 -51 119 -139 174 -163 22 -10
43 -16 47 -14 13 8 18 101 8 154 -22 114 -87 201 -183 246 -29 13 -57 24 -63
24 -6 0 -14 -22 -18 -48z"/>
<path d="M1065 1616 c-28 -13 -63 -37 -79 -54 -23 -25 -27 -36 -21 -59 4 -15
10 -65 14 -111 l6 -83 42 36 c59 50 103 142 103 214 0 80 -6 85 -65 57z"/>
<path d="M620 1199 c-226 -132 -229 -135 -250 -181 -18 -39 -20 -67 -20 -288
0 -248 5 -291 37 -339 18 -25 18 -17 23 285 6 364 -7 326 140 411 238 138 270
158 270 164 0 6 -47 30 -58 28 -4 0 -68 -36 -142 -80z"/>
<path d="M1023 1268 c-13 -6 -23 -14 -23 -18 0 -3 78 -51 172 -105 95 -55 186
-112 203 -126 l30 -27 5 -314 c5 -304 5 -312 23 -287 32 48 37 91 37 329 0
246 -6 293 -43 335 -20 23 -360 226 -375 224 -4 0 -17 -5 -29 -11z"/>
<path d="M865 1209 c-37 -20 -135 -76 -313 -179 -40 -23 -77 -50 -82 -61 -7
-11 -9 -135 -8 -326 l3 -307 65 -38 c36 -21 126 -73 200 -115 184 -105 179
-105 392 17 89 51 180 104 201 117 l37 23 0 309 c0 280 -2 311 -17 330 -18 20
-380 233 -418 245 -12 3 -37 -3 -60 -15z m25 -434 l0 -86 -87 3 -88 3 -3 69
c-2 38 -1 75 2 83 4 9 28 13 91 13 l85 0 0 -85z m215 0 l0 -80 -87 -3 -88 -3
0 86 0 86 88 -3 87 -3 0 -80z m-217 -212 l-3 -88 -85 0 -85 0 -3 65 c-5 110
-5 110 94 110 l85 0 -3 -87z m217 64 c3 -12 5 -52 3 -87 l-3 -65 -85 0 -85 0
-3 88 -3 87 85 0 c81 0 86 -1 91 -23z"/>
</g>
</svg>
